# xmcd CD database file
#
# Track frame offsets:
#	187
#	14335
#	28967
#	43427
#	53907
#	59035
#	71490
#	81900
#	93422
#	105097
#	111022
#	118095
#	130400
#	143995
#	151797
#	167765
#	179432
#	190632
#	203497
#	211082
#	219092
#	234425
#	246417
#	253295
#	265772
#	279567
#	292760
#	306302
#	318727
#	328655
#
# Disc length: 4567 seconds
#
# Revision: 2
# Processed by: cddbd v1.5.1PL0 Copyright (c) Steve Scherf et al.
# Submitted via: CDex 1.51
#
DISCID=be11d51e
DTITLE=NHK東京放送児童合唱団 - 決定盤!唱歌 ベスト30
DYEAR=1997
DGENRE=
TTITLE0=NHK東京放送児童合唱団/早春賦
TTITLE1=NHK東京放送児童合唱団/故郷
TTITLE2=NHK東京放送児童合唱団/冬の夜
TTITLE3=NHK東京放送児童合唱団/港
TTITLE4=タンポポ児童合唱団/村の鍛冶屋
TTITLE5=クロスロード・レディース・アンサンブル/青葉の笛
TTITLE6=土居裕子/冬の星座
TTITLE7=NHK東京放送児童合唱団/茶摘
TTITLE8=NHK東京放送児童合唱団/冬景色
TTITLE9=NHK東京放送児童合唱団/村まつり
TTITLE10=タンポポ児童合唱団/蛍
TTITLE11=NHK東京放送児童合唱団/我は海の子
TTITLE12=NHK東京放送児童合唱団/牧場の朝
TTITLE13=タンポポ児童合唱団/花火
TTITLE14=東京荒川少年少女合唱隊/灯台守
TTITLE15=NHK東京放送児童合唱団/海
TTITLE16=NHK東京放送児童合唱団/若葉
TTITLE17=NHK東京放送児童合唱団/夏は来ぬ
TTITLE18=タンポポ児童合唱団/きしゃ
TTITLE19=タンポポ児童合唱団/虫のこえ
TTITLE20=NHK東京放送児童合唱団/故郷の空
TTITLE21=NHK東京放送児童合唱団/おぼろ月夜
TTITLE22=タンポポ児童合唱団/たなばたさま
TTITLE23=タンポポ児童合唱団/とんび
TTITLE24=NHK東京放送児童合唱団/田植
TTITLE25=NHK東京放送児童合唱団/紅葉
TTITLE26=土居裕子/旅愁
TTITLE27=福村亮二/こいのぼり
TTITLE28=NHK東京放送児童合唱団/野菊
TTITLE29=NHK東京放送児童合唱団/埴生の宿
EXTD=YEAR: 1997
EXTT0=
EXTT1=
EXTT2=
EXTT3=
EXTT4=
EXTT5=
EXTT6=
EXTT7=
EXTT8=
EXTT9=
EXTT10=
EXTT11=
EXTT12=
EXTT13=
EXTT14=
EXTT15=
EXTT16=
EXTT17=
EXTT18=
EXTT19=
EXTT20=
EXTT21=
EXTT22=
EXTT23=
EXTT24=
EXTT25=
EXTT26=
EXTT27=
EXTT28=
EXTT29=
PLAYORDER=
